<?xml version="1.0" encoding="UTF-8"?>
<svg id="_레이어_1" data-name="레이어 1" xmlns="http://www.w3.org/2000/svg" version="1.1" viewBox="0 0 772.24 213.24">
  <defs>
    <style>
      .cls-1 {
        fill: #e4f4fd;
      }

      .cls-1, .cls-2, .cls-3 {
        stroke-width: 0px;
      }

      .cls-2 {
        fill: #fff;
      }

      .cls-3 {
        fill: #efefef;
      }
    </style>
  </defs>
  <g>
    <g>
      <path class="cls-2" d="M193.68,632.62h6.83c-1,3.83-2.92,6.75-5.74,8.75-2.83,2.1-6.38,3.14-10.66,3.14-5.19,0-9.25-1.69-12.17-5.06-2.92-3.28-4.37-7.97-4.37-14.08s1.41-10.39,4.24-13.67c2.92-3.37,6.97-5.06,12.17-5.06,5.47,0,9.71,1.64,12.71,4.92,1.64,2,2.82,4.33,3.55,6.97h-9.57c-.46-.91-.91-1.59-1.37-2.05-1.19-1.28-2.87-1.91-5.06-1.91-2.01,0-3.65.64-4.92,1.91-1.64,1.82-2.46,4.83-2.46,9.02s.82,7.15,2.46,8.88c1.18,1.46,2.96,2.19,5.33,2.19,1.55,0,2.87-.32,3.96-.96.27-.09.52-.25.75-.48l.75-.75c.18-.27.54-.64,1.09-1.09.55-.46,1.37-.68,2.46-.68Z"/>
      <path class="cls-2" d="M203.42,643.83v-17.63c0-3.55.52-6.54,1.57-8.95,1.04-2.41,2.48-4.35,4.3-5.81,1.73-1.37,3.76-2.37,6.08-3.01,2.32-.64,4.71-.96,7.18-.96h1.37v9.71h-3.14c-2.64,0-4.6.64-5.88,1.91-1.28,1.28-1.91,3.28-1.91,6.01v18.73h-9.57Z"/>
      <path class="cls-2" d="M251.57,632.62h6.83c-1,3.83-2.92,6.75-5.74,8.75-2.83,2.1-6.38,3.14-10.66,3.14-5.2,0-9.25-1.69-12.17-5.06-2.92-3.28-4.37-7.97-4.37-14.08s1.41-10.39,4.24-13.67c2.92-3.37,6.97-5.06,12.17-5.06,5.47,0,9.7,1.64,12.71,4.92,2.92,3.37,4.37,8.06,4.37,14.08v1.5c0,.46-.05.78-.14.96h-23.65c.09,2.83.77,4.92,2.05,6.29,1.18,1.46,2.96,2.19,5.33,2.19,1.55,0,2.87-.32,3.96-.96.27-.09.52-.25.75-.48s.48-.48.75-.75c.09-.27.43-.64,1.03-1.09.59-.46,1.44-.68,2.53-.68ZM235.17,621.96h13.94c-.18-2.46-.82-4.28-1.91-5.47-1.19-1.28-2.87-1.91-5.06-1.91-2.01,0-3.65.64-4.92,1.91-1.28,1.28-1.96,3.1-2.05,5.47Z"/>
      <path class="cls-2" d="M285.09,642.33c-1.91,1-3.94,1.62-6.08,1.85-2.14.23-4.03.34-5.67.34-3.28,0-6.15-.89-8.61-2.67-2.46-1.78-3.69-4.72-3.69-8.82,0-3.83,1.12-6.56,3.35-8.2,2.23-1.64,5.08-2.73,8.54-3.28.45,0,1-.07,1.64-.21.64-.14,1.37-.25,2.19-.34,4.01-.55,6.02-1.73,6.02-3.55,0-1.37-.71-2.25-2.12-2.67-1.41-.41-2.71-.62-3.9-.62-1.28,0-2.42.18-3.42.55-1,.37-1.73,1.05-2.19,2.05h-9.16c.36-2.82,1.64-5.15,3.83-6.97,2.46-2.1,5.97-3.14,10.53-3.14,5.1,0,8.93.87,11.48,2.6,2.64,1.82,3.96,4.37,3.96,7.65v12.44c0,3.65-.66,6.49-1.98,8.54-1.32,2.05-2.89,3.53-4.72,4.44ZM282.91,625.51c-1.28.64-3.05,1.23-5.33,1.78l-3.14.68c-1.64.46-2.82,1.05-3.55,1.78-.64,1-.96,2.01-.96,3.01,0,1.37.41,2.46,1.23,3.28.82.73,2,1.09,3.55,1.09,2.55,0,4.56-.73,6.02-2.19s2.19-3.46,2.19-6.01v-3.42Z"/>
      <path class="cls-2" d="M310.69,643.83c-3.01.18-6.27.14-9.77-.14-3.51-.27-5.26-2.5-5.26-6.7v-40.19h4.92c1.18,0,2.23.46,3.14,1.37.91.91,1.37,2.01,1.37,3.28v6.15h5.61v1.91c0,1.37-.46,2.48-1.37,3.35-.91.87-2.01,1.3-3.28,1.3h-.96v20.23c0,1.55.91,2.32,2.73,2.32h2.87v7.11Z"/>
      <path class="cls-2" d="M313.73,596.81h4.92c1.28,0,2.37.46,3.28,1.37.91.91,1.37,2.01,1.37,3.28v2.87h-9.57v-7.52ZM313.73,607.47h4.92c1.28,0,2.37.46,3.28,1.37.91.91,1.37,2.01,1.37,3.28v31.71h-9.57v-36.36Z"/>
      <path class="cls-2" d="M347.52,643.83h-9.71l-12.71-36.36h10.12l7.24,25.56,6.42-22.28c.73-2.19,2.19-3.28,4.37-3.28h7.11l-12.85,36.36Z"/>
      <path class="cls-2" d="M388.7,632.62h6.83c-1,3.83-2.92,6.75-5.74,8.75-2.83,2.1-6.38,3.14-10.66,3.14-5.2,0-9.25-1.69-12.17-5.06-2.92-3.28-4.37-7.97-4.37-14.08s1.41-10.39,4.24-13.67c2.92-3.37,6.97-5.06,12.17-5.06,5.47,0,9.7,1.64,12.71,4.92,2.92,3.37,4.37,8.06,4.37,14.08v1.5c0,.46-.05.78-.14.96h-23.65c.09,2.83.77,4.92,2.05,6.29,1.18,1.46,2.96,2.19,5.33,2.19,1.55,0,2.87-.32,3.96-.96.27-.09.52-.25.75-.48.23-.23.48-.48.75-.75.09-.27.43-.64,1.03-1.09.59-.46,1.44-.68,2.53-.68ZM372.29,621.96h13.94c-.18-2.46-.82-4.28-1.91-5.47-1.19-1.28-2.87-1.91-5.06-1.91-2.01,0-3.65.64-4.92,1.91-1.28,1.28-1.96,3.1-2.05,5.47Z"/>
      <path class="cls-2" d="M177.69,704.58c0,1.28-.46,2.37-1.37,3.28-.91.91-2.01,1.37-3.28,1.37h-4.65v-28.04c0-6.38,1.87-10.73,5.6-13.05,3.74-2.32,7.79-3.49,12.17-3.49,2.28,0,4.58.43,6.9,1.3,2.32.87,4.17,2.12,5.54,3.76,2.73,3.55,4.1,8.11,4.1,13.67s-1.37,10.39-4.1,13.94c-2.73,3.46-6.24,5.19-10.53,5.19-2.28,0-4.29-.41-6.02-1.23-1.82-.91-3.28-2.32-4.37-4.24v7.53ZM193.27,683.79c0-3.55-.68-6.29-2.05-8.2-1.37-1.91-3.33-2.87-5.88-2.87s-4.37.96-5.74,2.87c-1.28,1.73-1.91,4.47-1.91,8.2,0,3.46.68,6.06,2.05,7.79,1.37,1.91,3.32,2.87,5.88,2.87,2.37,0,4.24-.96,5.6-2.87,1.37-1.91,2.05-4.51,2.05-7.79Z"/>
      <path class="cls-2" d="M228.57,675.72c-1.37-1.91-3.23-2.87-5.6-2.87-2.55,0-4.51.91-5.88,2.73-1.37,1.82-2.05,4.33-2.05,7.52v18.73h-9.29v-47.02h4.65c1.28,0,2.37.46,3.28,1.37.91.91,1.37,2.01,1.37,3.28v10.8c1.64-2.73,3.96-4.46,6.97-5.19,3.01-.73,5.88-.55,8.61.55,2.55,1.09,4.69,2.83,6.43,5.19,1.73,2.37,2.6,5.65,2.6,9.84v21.19h-9.16v-18.86c0-1.37-.12-2.62-.34-3.76-.23-1.14-.75-2.3-1.57-3.49Z"/>
      <path class="cls-2" d="M247.19,698.55c-1.91-1.64-3.28-3.85-4.1-6.63-.82-2.78-1.23-5.67-1.23-8.68,0-2.46.34-4.92,1.03-7.38.68-2.46,1.75-4.51,3.21-6.15,2.37-2.73,5.42-4.35,9.16-4.85,3.74-.5,7.11-.21,10.12.89,3.46,1.37,6.02,3.74,7.66,7.11,1.55,3.01,2.32,6.52,2.32,10.53,0,2.92-.32,5.42-.95,7.52-.64,2.1-1.46,3.88-2.46,5.33-2.19,3.01-4.97,4.88-8.34,5.6-3.01.82-6.04.89-9.09.21-3.05-.68-5.49-1.85-7.31-3.49ZM253.76,674.49c-1.91,2.1-2.78,5.22-2.6,9.36.18,4.15.96,7.04,2.32,8.68.55.73,1.5,1.35,2.87,1.85,1.37.5,2.76.55,4.17.14,1.41-.41,2.67-1.43,3.76-3.08,1.09-1.64,1.68-4.28,1.78-7.93,0-3.28-.53-5.74-1.57-7.38-1.05-1.64-2.26-2.69-3.62-3.14-1.37-.46-2.73-.48-4.1-.07-1.37.41-2.37.94-3.01,1.57Z"/>
      <path class="cls-2" d="M294.39,701.83c-3.01.18-6.27.14-9.77-.14-3.51-.27-5.26-2.5-5.26-6.7v-40.19h4.92c1.18,0,2.23.46,3.14,1.37.91.91,1.37,2.01,1.37,3.28v6.15h5.6v1.91c0,1.37-.46,2.48-1.37,3.35-.91.87-2.01,1.3-3.28,1.3h-.96v20.23c0,1.55.91,2.32,2.73,2.32h2.87v7.11Z"/>
      <path class="cls-2" d="M301.12,698.55c-1.91-1.64-3.28-3.85-4.1-6.63-.82-2.78-1.23-5.67-1.23-8.68,0-2.46.34-4.92,1.03-7.38.68-2.46,1.75-4.51,3.21-6.15,2.37-2.73,5.42-4.35,9.16-4.85,3.74-.5,7.11-.21,10.12.89,3.46,1.37,6.02,3.74,7.66,7.11,1.55,3.01,2.32,6.52,2.32,10.53,0,2.92-.32,5.42-.96,7.52-.64,2.1-1.46,3.88-2.46,5.33-2.19,3.01-4.97,4.88-8.34,5.6-3.01.82-6.04.89-9.09.21-3.05-.68-5.49-1.85-7.31-3.49ZM307.68,674.49c-1.91,2.1-2.78,5.22-2.6,9.36.18,4.15.96,7.04,2.32,8.68.55.73,1.5,1.35,2.87,1.85,1.37.5,2.76.55,4.17.14,1.41-.41,2.67-1.43,3.76-3.08,1.09-1.64,1.68-4.28,1.78-7.93,0-3.28-.53-5.74-1.57-7.38-1.05-1.64-2.26-2.69-3.62-3.14-1.37-.46-2.73-.48-4.1-.07-1.37.41-2.37.94-3.01,1.57Z"/>
    </g>
    <g>
      <path class="cls-3" d="M171.92,725.79v12.5h-1.7v-12.5h-2.38v-1.43h2.38v-1.27c0-.59.04-1.14.13-1.65.09-.5.26-.94.51-1.3.25-.36.6-.64,1.04-.84.44-.2,1-.3,1.69-.3.25,0,.49,0,.7.03.21.02.46.05.73.08v1.46c-.23-.04-.45-.07-.65-.09-.2-.03-.4-.04-.59-.04-.47,0-.83.07-1.08.22-.25.14-.44.34-.55.58-.12.24-.18.53-.2.85-.02.32-.03.67-.03,1.05v1.22h2.75v1.43h-2.75Z"/>
      <path class="cls-3" d="M186.02,738.29v-2.51h-.05c-.45.94-1.1,1.65-1.96,2.15-.86.49-1.8.74-2.85.74-.88,0-1.63-.12-2.25-.36s-1.12-.59-1.51-1.04c-.39-.45-.67-1-.85-1.65-.18-.65-.27-1.39-.27-2.21v-9.04h1.7v9.07c.04,1.26.33,2.21.88,2.86.55.65,1.5.97,2.85.97.74,0,1.37-.16,1.89-.47.52-.32.95-.73,1.3-1.26.34-.52.59-1.12.76-1.8.16-.67.24-1.36.24-2.07v-7.32h1.7v13.93h-1.57Z"/>
      <path class="cls-3" d="M192.47,724.36v2.4h.05c.32-.85.9-1.53,1.73-2.04s1.74-.77,2.73-.77,1.79.13,2.44.38c.66.25,1.18.61,1.58,1.07.4.46.68,1.02.84,1.69.16.67.24,1.41.24,2.24v8.96h-1.7v-8.69c0-.59-.05-1.15-.16-1.66-.11-.51-.3-.96-.57-1.34-.27-.38-.63-.67-1.09-.89s-1.03-.32-1.71-.32-1.29.12-1.82.37c-.53.24-.98.58-1.35,1-.37.42-.66.93-.86,1.51-.21.58-.32,1.22-.34,1.9v8.13h-1.7v-13.93h1.7Z"/>
      <path class="cls-3" d="M206.97,724.36v2.4h.05c.32-.85.9-1.53,1.73-2.04.83-.51,1.74-.77,2.73-.77s1.79.13,2.44.38c.66.25,1.18.61,1.58,1.07.4.46.67,1.02.84,1.69.16.67.24,1.41.24,2.24v8.96h-1.7v-8.69c0-.59-.05-1.15-.16-1.66s-.3-.96-.57-1.34c-.27-.38-.63-.67-1.09-.89-.46-.22-1.03-.32-1.71-.32s-1.29.12-1.82.37c-.53.24-.98.58-1.35,1-.37.42-.66.93-.86,1.51-.21.58-.32,1.22-.34,1.9v8.13h-1.7v-13.93h1.7Z"/>
      <path class="cls-3" d="M220.04,724.36l4.59,11.88,4.29-11.88h1.7l-6.05,16.04c-.25.59-.49,1.08-.7,1.47-.22.39-.46.69-.72.92-.26.23-.57.39-.92.49-.35.1-.8.15-1.34.15-.34-.02-.61-.03-.8-.04-.19,0-.36-.04-.5-.09v-1.43c.2.04.39.07.58.09.19.03.38.04.58.04.38,0,.69-.05.93-.16.24-.11.46-.26.63-.45.18-.19.33-.42.46-.69.12-.27.26-.57.4-.89l.59-1.57-5.56-13.88h1.81Z"/>
      <path class="cls-3" d="M241.37,724.36v2.35h.08c.45-.86,1.04-1.54,1.77-2.03.73-.49,1.66-.73,2.79-.73.92,0,1.75.23,2.5.67.75.45,1.25,1.13,1.5,2.05.41-.92,1.03-1.6,1.84-2.05.81-.45,1.67-.67,2.59-.67,3.08,0,4.62,1.63,4.62,4.89v9.45h-1.7v-9.37c0-1.15-.24-2.03-.73-2.63-.49-.6-1.34-.9-2.56-.9-.74,0-1.35.14-1.84.42-.49.28-.87.65-1.16,1.12-.29.47-.49,1-.61,1.61-.12.6-.17,1.23-.17,1.88v7.88h-1.7v-9.45c0-.47-.05-.91-.15-1.34-.1-.42-.26-.79-.49-1.11-.23-.31-.53-.56-.9-.74-.38-.18-.84-.27-1.38-.27-.72,0-1.35.13-1.88.39-.53.26-.96.62-1.3,1.08-.33.46-.58,1-.74,1.62s-.24,1.3-.24,2.04v7.78h-1.7v-13.93h1.57Z"/>
      <path class="cls-3" d="M271,724.55c.82.4,1.51.93,2.07,1.59.56.67.98,1.45,1.27,2.34.29.89.43,1.84.43,2.85s-.14,1.96-.43,2.85c-.29.89-.71,1.67-1.27,2.34-.56.67-1.25,1.19-2.07,1.58-.82.39-1.76.58-2.82.58s-2-.19-2.82-.58c-.82-.39-1.51-.91-2.06-1.58-.56-.67-.98-1.44-1.27-2.34-.29-.89-.43-1.84-.43-2.85s.14-1.96.43-2.85c.29-.89.71-1.67,1.27-2.34.56-.67,1.25-1.2,2.06-1.59.82-.4,1.76-.59,2.82-.59s2,.2,2.82.59ZM266.04,725.9c-.61.34-1.12.79-1.53,1.35-.41.56-.71,1.19-.92,1.9-.21.71-.31,1.44-.31,2.17s.1,1.46.31,2.17c.21.71.51,1.35.92,1.9.4.56.91,1.01,1.53,1.35.61.34,1.32.51,2.13.51s1.52-.17,2.13-.51c.61-.34,1.12-.79,1.53-1.35.4-.56.71-1.19.92-1.9.21-.71.31-1.43.31-2.17s-.1-1.46-.31-2.17c-.21-.71-.51-1.34-.92-1.9-.4-.56-.91-1.01-1.53-1.35-.61-.34-1.32-.51-2.13-.51s-1.52.17-2.13.51Z"/>
      <path class="cls-3" d="M278.87,724.36v2.35h.08c.45-.86,1.04-1.54,1.77-2.03.73-.49,1.66-.73,2.79-.73.92,0,1.75.23,2.5.67.75.45,1.25,1.13,1.5,2.05.41-.92,1.03-1.6,1.84-2.05.81-.45,1.67-.67,2.59-.67,3.08,0,4.62,1.63,4.62,4.89v9.45h-1.7v-9.37c0-1.15-.24-2.03-.73-2.63-.49-.6-1.34-.9-2.57-.9-.74,0-1.35.14-1.84.42s-.87.65-1.16,1.12c-.29.47-.49,1-.61,1.61-.12.6-.18,1.23-.18,1.88v7.88h-1.7v-9.45c0-.47-.05-.91-.15-1.34-.1-.42-.26-.79-.49-1.11-.22-.31-.53-.56-.9-.74s-.84-.27-1.38-.27c-.72,0-1.35.13-1.88.39-.53.26-.96.62-1.29,1.08-.33.46-.58,1-.74,1.62-.16.62-.24,1.3-.24,2.04v7.78h-1.7v-13.93h1.57Z"/>
      <path class="cls-3" d="M301.05,733.69c.17.66.45,1.25.82,1.77.38.52.86.95,1.43,1.3s1.27.51,2.08.51c1.24,0,2.21-.32,2.92-.97.7-.65,1.19-1.51,1.46-2.59h1.7c-.36,1.58-1.02,2.81-1.98,3.67-.96.86-2.33,1.3-4.09,1.3-1.1,0-2.05-.19-2.85-.58-.8-.39-1.46-.92-1.96-1.59-.51-.67-.88-1.46-1.12-2.35-.24-.89-.37-1.83-.37-2.82,0-.92.12-1.82.37-2.7.24-.88.62-1.67,1.12-2.36.5-.69,1.16-1.25,1.96-1.67.8-.42,1.75-.63,2.85-.63s2.07.23,2.86.67c.79.45,1.43,1.04,1.93,1.77.49.73.85,1.57,1.07,2.51.22.95.31,1.9.27,2.88h-10.72c0,.61.09,1.25.26,1.9ZM309.47,728.49c-.21-.59-.5-1.12-.88-1.58-.38-.46-.84-.83-1.38-1.11-.54-.28-1.15-.42-1.84-.42s-1.32.14-1.86.42c-.54.28-1,.65-1.38,1.11-.38.46-.68.99-.9,1.59-.22.6-.37,1.22-.45,1.85h9.02c-.02-.65-.13-1.27-.34-1.86Z"/>
      <path class="cls-3" d="M315.48,724.36v2.4h.05c.32-.85.9-1.53,1.73-2.04.83-.51,1.74-.77,2.73-.77s1.79.13,2.44.38c.66.25,1.18.61,1.58,1.07.39.46.67,1.02.84,1.69.16.67.24,1.41.24,2.24v8.96h-1.7v-8.69c0-.59-.05-1.15-.16-1.66-.11-.51-.3-.96-.57-1.34-.27-.38-.63-.67-1.09-.89-.46-.22-1.03-.32-1.71-.32s-1.29.12-1.82.37c-.53.24-.98.58-1.35,1-.37.42-.66.93-.86,1.51-.21.58-.32,1.22-.34,1.9v8.13h-1.7v-13.93h1.7Z"/>
      <path class="cls-3" d="M333.84,724.36v1.43h-2.84v9.4c0,.56.08,1,.23,1.31.15.32.54.49,1.15.53.49,0,.97-.03,1.46-.08v1.43c-.25,0-.51,0-.76.03-.25.02-.51.03-.76.03-1.13,0-1.93-.22-2.37-.66-.45-.44-.67-1.26-.65-2.44v-9.53h-2.43v-1.43h2.43v-4.19h1.7v4.19h2.84Z"/>
      <path class="cls-3" d="M344.32,727.07c-.2-.39-.46-.71-.8-.96-.33-.25-.71-.44-1.15-.55-.43-.12-.89-.18-1.38-.18-.38,0-.76.04-1.15.12-.39.08-.74.22-1.07.4-.32.19-.59.44-.78.74-.2.31-.3.68-.3,1.13,0,.38.09.7.28.96.19.26.43.48.72.66.29.18.6.33.94.45.34.12.66.21.95.28l2.27.51c.49.07.97.2,1.45.39.48.19.9.44,1.27.74.37.31.67.68.9,1.13.23.45.35.98.35,1.59,0,.76-.17,1.4-.51,1.93-.34.53-.78.96-1.31,1.3-.53.33-1.13.57-1.79.72-.67.14-1.32.22-1.97.22-1.64,0-2.96-.39-3.98-1.16-1.02-.77-1.6-2.02-1.74-3.73h1.7c.07,1.15.49,2.02,1.26,2.61.77.58,1.71.88,2.85.88.41,0,.84-.04,1.28-.13.44-.09.85-.24,1.23-.46.38-.22.69-.49.93-.82.24-.33.37-.74.37-1.23,0-.41-.09-.76-.26-1.04-.17-.28-.4-.51-.69-.7-.29-.19-.62-.35-.99-.47-.37-.13-.74-.23-1.12-.32l-2.19-.49c-.56-.14-1.07-.31-1.54-.5-.47-.19-.88-.42-1.23-.7-.35-.28-.63-.62-.82-1.03-.2-.4-.3-.9-.3-1.5,0-.7.16-1.3.47-1.81.31-.5.72-.91,1.23-1.21.5-.31,1.07-.53,1.69-.67.62-.14,1.24-.22,1.85-.22.7,0,1.35.09,1.96.27.6.18,1.13.46,1.59.84.46.38.82.85,1.09,1.4.27.56.42,1.21.46,1.97h-1.7c-.02-.52-.13-.98-.32-1.36Z"/>
    </g>
    <g>
      <path class="cls-2" d="M138.97,748.96c0,2.47,2.01,4.48,4.48,4.48s4.48-2,4.48-4.48-2-4.48-4.48-4.48-4.48,2-4.48,4.48Z"/>
      <path class="cls-2" d="M14.09,784.74c0,2.47,2.01,4.48,4.48,4.48s4.48-2,4.48-4.48-2-4.48-4.48-4.48-4.48,2-4.48,4.48Z"/>
      <path class="cls-2" d="M103.24,820.76c0,2.47,2,4.48,4.48,4.48s4.48-2,4.48-4.48-2-4.48-4.48-4.48-4.48,2-4.48,4.48Z"/>
      <path class="cls-2" d="M85.3,793.69c0,2.47,2.01,4.48,4.48,4.48s4.48-2,4.48-4.48-2-4.48-4.48-4.48-4.48,2-4.48,4.48Z"/>
      <path class="cls-2" d="M121.13,774.59c0,2.47,2,4.48,4.48,4.48s4.48-2,4.48-4.48-2-4.48-4.48-4.48-4.48,2-4.48,4.48Z"/>
      <path class="cls-2" d="M67.54,815.21c0,2.47,2.01,4.48,4.48,4.48s4.48-2.01,4.48-4.48-2-4.48-4.48-4.48-4.48,2-4.48,4.48Z"/>
      <path class="cls-2" d="M49.72,802.71c0,2.47,2.01,4.48,4.48,4.48s4.48-2,4.48-4.48-2-4.48-4.48-4.48-4.48,2-4.48,4.48Z"/>
      <path class="cls-2" d="M32.07,761.66c0,2.47,2.01,4.48,4.48,4.48s4.48-2.01,4.48-4.48-2-4.48-4.48-4.48-4.48,2-4.48,4.48Z"/>
      <g>
        <path class="cls-2" d="M72.02,630.76c-15.2,0-27.56,12.36-27.56,27.56s12.36,27.56,27.56,27.56,27.56-12.36,27.56-27.56-12.36-27.56-27.56-27.56ZM72.02,651.01c-4.03,0-7.3,3.28-7.3,7.3,0,3.13-2.54,5.67-5.67,5.67s-5.67-2.54-5.67-5.67c0-10.28,8.37-18.65,18.65-18.65,3.13,0,5.67,2.54,5.67,5.67s-2.54,5.67-5.67,5.67Z"/>
        <path class="cls-2" d="M136.9,598.06h-22.35c-3.24,0-6.2-1.93-7.51-4.9-2.62-5.93-8.53-9.79-15.02-9.79h-41.82c-6.27,0-11.91,3.92-14.1,9.79-1.1,2.94-3.92,4.9-7.05,4.9H7.13c-6.08,0-11.02,4.93-11.02,11.02v114.98c0,2.47,2,4.47,4.47,4.47s4.46-2,4.46-4.47c0,0,.02-12.14.02-12.15,0-2.15.21-6.07,4.53-6.07,2.47,0,4.48,2.01,4.48,4.48,0,.27-.07,45.55-.09,60.05,0,2.45,2.01,4.41,4.46,4.41s4.46-2,4.46-4.47c-.02-9.98-.07-33.25-.07-33.48,0-2.48,2-4.48,4.48-4.48s4.37,1.91,4.47,4.3c0,.03.06,12.15.06,12.15,0,2.47,2,4.46,4.46,4.46s4.47-2,4.47-4.46c0,0,.12-19.89.12-19.94,0-2.94,2.21-4.55,4.4-4.55,2.47,0,4.48,2.01,4.48,4.48,0,.22-.05,43.91-.06,60.66,0,2.47,1.99,4.48,4.46,4.48s4.46-1.99,4.46-4.46c0-11.47-.03-26.91-.03-27.06,0-2.47,2.01-4.48,4.48-4.48s4.49,1.66,4.49,4.48v38.82c0,2.47,2,4.46,4.46,4.46s4.46-2.02,4.46-4.49c0-16.51,0-54.34,0-54.39,0-2.47,2.01-4.48,4.48-4.48s4.48,2,4.48,4.48c0,.1-.01,22.54-.02,32.35,0,2.48,1.99,4.5,4.46,4.5s4.46-1.99,4.46-4.45c-.02-13.19-.06-51.14-.06-51.35,0-2.47,2.01-4.48,4.48-4.48s4.48,2,4.48,4.48c0,.05.03,62.08.04,79.35,0,2.47,2,4.47,4.47,4.47s4.46-2,4.46-4.47c0-16.42-.04-73.12-.04-73.28,0-2.48,2-4.48,4.48-4.48,2.27,0,4.14,1.68,4.43,3.87,0,.03.05,27.79.05,27.79,0,2.47,2,4.47,4.47,4.47s4.46-2,4.46-4.47c0,0-.03-49.09-.03-49.26,0-2.47,2-4.48,4.48-4.48,2.06,0,4.31,1.73,4.31,4.48,0,.06.17,24.34.17,24.34,0,2.47,2,4.46,4.47,4.46s4.46-2,4.46-4.46v-127.13c0-6.08-4.93-11.02-11.02-11.02ZM72.02,697.22c-21.45,0-38.9-17.45-38.9-38.9s17.45-38.9,38.9-38.9,38.9,17.45,38.9,38.9-17.45,38.9-38.9,38.9Z"/>
      </g>
    </g>
  </g>
  <g>
    <g>
      <g>
        <path class="cls-1" d="M287.87,82.12h-22.68v55.96h-15.57v-55.96h-22.68v-13.78h60.93v13.78Z"/>
        <path class="cls-1" d="M288.3,87.94h15.23v5.13c3-4.02,7.62-6.33,14.03-6.33,2.82,0,4.62.17,6.59.86l.17,14.29c-2.14-1.11-4.79-1.71-7.79-1.71-8.13,0-13.01,4.62-13.01,12.24v25.67h-15.23v-50.15Z"/>
        <path class="cls-1" d="M327.24,113.01c0-15.23,10.01-26.27,24.39-26.27,6.59,0,11.38,2.31,14.38,6.33v-5.13h15.23v50.15h-15.23v-5.13c-2.99,4.02-7.79,6.33-14.38,6.33-14.38,0-24.39-11.04-24.39-26.27ZM366.26,113.01c0-7.7-4.79-13.26-12.24-13.26s-11.9,5.56-11.9,13.26,4.62,13.26,11.9,13.26,12.24-5.56,12.24-13.26Z"/>
        <path class="cls-1" d="M442.16,87.94l-19.25,50.15h-15.83l-19.25-50.15h16.52l11.21,32.69,11.21-32.69h15.4Z"/>
        <path class="cls-1" d="M443.79,113.01c0-15.23,10.78-26.27,26.1-26.27s26.1,10.95,26.1,26.27c0,1.46-.09,3.08-.34,4.88h-36.71c1.2,5.82,5.22,9.16,10.95,9.16,4.36,0,7.96-1.54,9.24-3.94h15.32c-2.57,9.58-12.41,16.17-24.56,16.17-15.32,0-26.1-10.95-26.1-26.27ZM481.1,108.05c-1.28-5.99-5.22-9.24-11.21-9.24s-9.75,3.25-11.04,9.24h22.25Z"/>
        <path class="cls-1" d="M520.21,138.08h-15.23v-71.88h15.23v71.88Z"/>
        <path class="cls-1" d="M587.22,89.39h-16.09c-.94-6.08-5.48-9.75-12.92-9.75s-11.3,2.91-11.3,7.1c0,5.22,5.39,7.02,19,9.84,16.09,3.34,21.56,11.3,21.56,21.74,0,13.35-12.58,21.48-28.15,21.48-17.2,0-29.78-9.33-30.46-24.22h16c.86,6.67,6.67,11.12,15.57,11.12,6.33,0,11.04-3.17,11.04-7.7,0-5.56-4.71-7.79-17.11-10.1-15.15-2.82-23.36-9.07-23.36-22.16s12.49-20.11,28.24-20.11,27.21,9.5,27.98,22.76Z"/>
        <path class="cls-1" d="M596.21,87.94h15.23v5.13c3-4.02,7.62-6.33,14.03-6.33,11.64,0,19.6,8.47,19.6,22.33v29.01h-15.23v-26.44c0-7.62-3.08-11.81-8.81-11.81s-9.58,4.71-9.58,12.49v25.76h-15.23v-50.15Z"/>
        <path class="cls-1" d="M652.77,113.01c0-15.23,10.01-26.27,24.39-26.27,6.59,0,11.38,2.31,14.38,6.33v-5.13h15.23v50.15h-15.23v-5.13c-2.99,4.02-7.79,6.33-14.38,6.33-14.38,0-24.39-11.04-24.39-26.27ZM691.79,113.01c0-7.7-4.79-13.26-12.24-13.26s-11.89,5.56-11.89,13.26,4.62,13.26,11.89,13.26,12.24-5.56,12.24-13.26Z"/>
        <path class="cls-1" d="M718.24,87.94h15.23v5.13c3-4.02,7.79-6.33,14.38-6.33,14.38,0,24.39,11.04,24.39,26.27s-10.01,26.27-24.39,26.27c-6.59,0-11.38-2.31-14.38-6.33v26.01h-15.23v-71.02ZM757.35,113.01c0-7.7-4.62-13.26-11.89-13.26s-12.24,5.56-12.24,13.26,4.79,13.26,12.24,13.26,11.89-5.56,11.89-13.26Z"/>
      </g>
      <g>
        <path class="cls-2" d="M348.58,173.88c0,12-4.65,17.75-11.13,17.75s-11.13-5.75-11.13-17.75,4.65-17.75,11.13-17.75,11.13,5.75,11.13,17.75ZM346.62,173.88c0-10.82-3.88-15.97-9.17-15.97s-9.17,5.16-9.17,15.97,3.88,15.97,9.17,15.97,9.17-5.16,9.17-15.97ZM360.13,154.85v38.97h-1.92v-12.09h-8.31l.14-1.78h8.17v-12.32h-8.17l-.14-1.78h8.31v-11h1.92Z"/>
        <path class="cls-2" d="M392.97,160.87h-20.58v-1.73h9.49v-4.84h1.92v4.84h9.17v1.73ZM382.89,178.08c-4.97,0-8.81-2.69-8.81-7.07s3.83-7.07,8.81-7.07,8.81,2.69,8.81,7.07-3.83,7.07-8.81,7.07ZM382.89,176.39c4.34,0,6.89-2.46,6.89-5.38s-2.56-5.38-6.89-5.38-6.89,2.46-6.89,5.38,2.56,5.38,6.89,5.38ZM409.9,186.93c0,4.75-7.53,6.53-16.56,6.53s-16.56-1.78-16.56-6.53,7.53-6.52,16.56-6.52,16.56,1.78,16.56,6.52ZM407.94,186.93c0-3.33-6.66-4.79-14.6-4.79s-14.6,1.46-14.6,4.79,6.66,4.79,14.6,4.79,14.6-1.46,14.6-4.79ZM398.67,177.71h-1.92v-22.59h1.92v9.86h8.72v-10.13h1.92v24.23h-1.92v-12.32h-8.72v10.95Z"/>
        <path class="cls-2" d="M459.81,173.97h-38.51v-1.73h38.51v1.73ZM457.21,161.92c0,4.97-7.89,6.8-16.66,6.8s-16.66-1.83-16.66-6.8,7.89-6.8,16.66-6.8,16.66,1.83,16.66,6.8ZM456.84,186.56h-30.62v4.65h31.49v1.73h-33.4v-8.08h30.62v-4.52h-30.71v-1.73h32.63v7.94ZM425.86,161.92c0,3.7,7.12,5.07,14.69,5.07s14.69-1.37,14.69-5.07-7.12-5.07-14.69-5.07-14.69,1.37-14.69,5.07Z"/>
        <path class="cls-2" d="M510.13,165.12c0,15.47-7.89,25.78-20.9,25.78v-1.83c11.59,0,18.98-9.22,18.98-23.77v-6.85h-18.98v-1.78h20.9v8.44ZM522.45,193.82h-1.92v-38.97h1.92v38.97Z"/>
        <path class="cls-2" d="M574.05,177.25v1.73h-38.51v-1.73h18.3v-5.25h-15.06v-9.04h30.35v-5.52h-30.35v-1.73h32.22v8.94h-30.35v5.61h30.98v1.73h-15.88v5.25h18.3ZM538.18,183.92h32.81v9.58h-1.92v-7.8h-30.89v-1.78Z"/>
        <path class="cls-2" d="M598.49,162.01h11.68v1.78h-25.23v-1.78h11.64v-7.26h1.92v7.26ZM607.99,179.81c0,7.21-4.7,11.73-10.45,11.73s-10.45-4.52-10.45-11.73,4.7-11.73,10.45-11.73,10.45,4.52,10.45,11.73ZM606.02,179.81c0-6.11-3.92-9.95-8.49-9.95s-8.49,3.83-8.49,9.95,3.92,9.95,8.49,9.95,8.49-3.83,8.49-9.95ZM624.41,173.7h-6.16v20.12h-1.92v-38.97h1.92v17.07h6.16v1.78Z"/>
        <path class="cls-2" d="M650.05,189.3c3.7,0,7.71-.82,10.08-1.96v1.87c-2.37,1.14-6.34,1.87-10.08,1.87h-15.33v-34.41h22.36v1.78h-20.44v30.85h13.42ZM672.86,173.7h-6.16v20.12h-1.92v-38.97h1.92v17.07h6.16v1.78Z"/>
      </g>
    </g>
    <g>
      <path class="cls-1" d="M138.52,149.76c-1.49-1.49-3.92-1.49-5.41,0l-4.37,4.37-4.37-4.37c-1.49-1.49-3.92-1.49-5.41,0-1.49,1.49-1.49,3.92,0,5.41l4.37,4.37-4.37,4.37c-1.49,1.49-1.49,3.92,0,5.41,1.45,1.45,3.96,1.45,5.41,0l4.37-4.37,4.37,4.37c.72.72,1.68,1.12,2.71,1.12s1.98-.4,2.71-1.12c1.49-1.49,1.49-3.92,0-5.41l-4.37-4.37,4.37-4.37c1.49-1.49,1.49-3.92,0-5.41Z"/>
      <path class="cls-1" d="M131.24,174.02c-1.85-1.01-4.18-.32-5.19,1.53h0c-.42.77-.83,1.52-1.26,2.25-.51.89-.64,1.92-.37,2.9.27.99.9,1.81,1.79,2.32.58.33,1.23.51,1.9.51,1.37,0,2.64-.74,3.32-1.93.45-.78.89-1.58,1.34-2.4,1.01-1.85.32-4.18-1.53-5.19Z"/>
      <path class="cls-1" d="M42.76,189.11h0c-1.92.19-3.85.43-5.76.71-1.01.15-1.9.69-2.51,1.51s-.86,1.83-.71,2.84c.28,1.86,1.9,3.26,3.78,3.26.19,0,.38-.01.57-.04,1.78-.27,3.59-.49,5.38-.66,1.02-.1,1.93-.59,2.58-1.38.65-.79.95-1.78.85-2.8-.2-2.09-2.08-3.63-4.18-3.44Z"/>
      <path class="cls-1" d="M98.54,201.56c1.14,0,2.26-.03,3.33-.1,2.1-.13,3.71-1.95,3.58-4.06-.13-2.1-1.96-3.71-4.06-3.58-1.62.1-3.37.11-5.2.03-2.11-.09-3.9,1.55-3.99,3.66-.04,1.02.31,2,1,2.75s1.63,1.19,2.65,1.24c.91.04,1.81.06,2.68.06Z"/>
      <path class="cls-1" d="M22.79,192.94h0c-1.9.57-3.77,1.19-5.56,1.86-.96.36-1.72,1.06-2.14,1.99-.42.93-.46,1.97-.11,2.93.56,1.49,2,2.49,3.59,2.49.46,0,.91-.08,1.34-.24,1.64-.61,3.34-1.18,5.08-1.7,2.02-.6,3.18-2.74,2.58-4.76-.6-2.02-2.73-3.17-4.76-2.58Z"/>
      <path class="cls-1" d="M63.14,189.01c-1.78-.19-3.41-.31-4.98-.37l-1.03-.03c-2.08,0-3.76,1.63-3.82,3.71-.03,1.02.34,1.99,1.04,2.74.7.74,1.65,1.17,2.67,1.2l.86.03c1.39.05,2.84.16,4.44.33.14.01.28.02.41.02,1.96,0,3.59-1.47,3.8-3.42.11-1.02-.18-2.01-.82-2.81s-1.55-1.29-2.57-1.4Z"/>
      <path class="cls-1" d="M113.21,190.67c-.9.49-1.54,1.3-1.83,2.29-.28.98-.17,2.01.32,2.91.67,1.22,1.96,1.98,3.35,1.98.64,0,1.28-.16,1.84-.48,1.86-1.03,3.63-2.27,5.26-3.69.77-.67,1.23-1.61,1.29-2.63s-.27-2-.94-2.77c-1.39-1.58-3.81-1.74-5.4-.35-1.23,1.07-2.5,1.97-3.9,2.74Z"/>
      <path class="cls-1" d="M75.97,198.79c1.82.33,3.66.67,5.49.98h0c.22.04.44.06.65.06,1.87,0,3.45-1.34,3.77-3.18.17-1.01-.05-2.02-.64-2.86s-1.47-1.39-2.48-1.56c-1.74-.3-3.48-.62-5.25-.94l-.24-.04c-1-.18-2.02.03-2.86.62-.83.58-1.39,1.45-1.58,2.46-.18,1,.04,2.02.63,2.87.59.84,1.46,1.41,2.5,1.6Z"/>
      <path class="cls-1" d="M6.8,200.85c-1-.21-2.02-.02-2.88.54-.81.53-1.61,1.08-2.36,1.63-.82.6-1.36,1.49-1.52,2.5-.16,1.01.09,2.02.7,2.84.72.98,1.87,1.56,3.09,1.56.82,0,1.6-.26,2.26-.74.64-.47,1.32-.94,2.02-1.39.86-.56,1.44-1.42,1.65-2.42s.02-2.02-.54-2.88-1.42-1.44-2.42-1.65Z"/>
      <path class="cls-1" d="M179.49,44.23c0-.06-.01-.11-.03-.22-1.3-8.24-4.48-15.85-9.44-22.65-1.27-1.69-3.67-2.05-5.35-.82-.83.6-1.37,1.49-1.52,2.5-.15,1.01.1,2.02.7,2.85,5.66,7.74,8.65,16.92,8.65,26.55,0,18.27-8.42,27.2-17.4,36.71-4.55,4.79-9.26,9.75-12.82,16.03-4.06,7.18-6.41,13.32-8.3,18.25-2.9,7.55-3.97,9.59-5.98,9.59-.66,0-1.22-.32-1.78-.99-.98-1.51-2.03-4.02-3.62-8.12l-.15-.39c-1.67-4.23-3.74-9.49-6.87-15.23l-.06-.13c-.41-.76-.85-1.53-1.31-2.29-.95-1.63-2.02-3.26-3.29-4.99-3.1-4.34-6.62-8.08-10.03-11.7l-.1-.11c-8.89-9.38-17.29-18.25-17.29-36.65,0-24.69,19.96-44.78,44.5-44.78,9.69,0,18.89,3.07,26.62,8.88.81.61,1.81.87,2.83.73,1.01-.14,1.91-.67,2.53-1.48,1.26-1.69.92-4.09-.77-5.35-9.06-6.83-19.85-10.45-31.21-10.45-27.15,0-49.99,21.3-52.01,48.5-.01.19-.03.39-.04.58-.02.22-.03.44-.05.67-.04.75-.07,1.49-.06,2.18-.03.18-.03.38,0,.51v.59c0,.37.01.74,0,1.1-.24,6.16.91,12.37,3.31,17.95.62,1.43,1.35,2.9,2.18,4.37-21.57,4.86-39.59,19.84-48.3,40.18-1.06,2.42-1.95,4.85-2.71,7.41-1.93,6.4-2.91,13.1-2.91,19.91,0,5.11.56,10.18,1.66,15.04.53,2.49,1.22,4.96,2.06,7.32,2.17,6.46,5.32,12.56,9.37,18.15.06.09.13.17.17.21.39.55.79,1.09,1.21,1.63,1.26,1.63,3.62,1.93,5.26.67,1.63-1.27,1.93-3.62.67-5.26-.4-.52-.79-1.04-1.16-1.58-.09-.13-.18-.25-.25-.32-3.07-4.28-5.57-8.94-7.42-13.87,6.67.39,11.82,0,16.56-1.22.18-.03.33-.09.44-.13,17.65-6.67,26.86-18.35,35.77-29.65l.09-.12c5.74-7.29,11.17-14.19,18.7-19.31,1.67,3.52,2.96,6.79,4.11,9.68l.3.77c1.6,4.1,3.12,7.97,5.17,10.63,2.24,3.26,4.92,4.78,8.43,4.78,7.56,0,10.01-6.4,13.11-14.51,1.7-4.41,3.8-9.85,7.17-16.02,6.3,9.89,9.63,21.31,9.63,33.1,0,29.62-21.08,55.12-50.13,60.65-7.62,1.48-15.68,1.48-23.31,0-4.46-.84-8.83-2.19-13-4-.92-.4-1.94-.42-2.87-.05-.93.37-1.66,1.07-2.06,1.99-.82,1.89.05,4.1,1.94,4.93,4.68,2.03,9.58,3.54,14.58,4.49,4.3.84,8.69,1.26,13.08,1.26s8.77-.42,13.06-1.26c32.57-6.2,56.21-34.8,56.21-68.01,0-13.93-4.12-27.35-11.91-38.83-.42-.62-.82-1.18-1.2-1.7.75-1.02,1.56-2.05,2.48-3.15,1.75-2.08,3.63-4.09,5.57-6.14,3.88-4.11,7.9-8.37,11.15-13.31,1.23-1.87,2.33-3.79,3.26-5.71l.05-.13c2.19-5.65,5.62-17.14,4.16-30.77ZM75.9,99.97c3.76-4.43,7.65-9,12.32-13.25,2.4,2.95,5,5.69,7.53,8.36l.09.1c3.12,3.31,6.06,6.43,8.66,9.91.71.98,1.35,1.93,1.95,2.91l-.2.13.48.77c-8.76,5.81-14.93,13.64-20.9,21.22l-.11.14c-8.24,10.43-16.76,21.21-32.24,27.13-5.71,1.44-11.73,1.19-16.92.73,0-.04-.02-.07-.03-.11-.05-.2-.1-.39-.15-.6-.99-4.36-1.49-8.88-1.49-13.44,0-6.09.87-12.06,2.59-17.76.08-.28.18-.56.27-.84l.08-.24c19.25-3.08,28.36-13.78,38.05-25.17ZM79.28,84.71c-3.44,3.5-6.51,7.12-9.26,10.35-8.25,9.7-15.4,18.11-28.71,21.57,7.66-15.56,21.38-27.08,37.97-31.92Z"/>
      <path class="cls-1" d="M102.15,52.15c0,14.25,11.59,25.85,25.85,25.85s25.85-11.59,25.85-25.85-11.6-25.85-25.85-25.85-25.85,11.6-25.85,25.85ZM146.19,52.15c0,10.03-8.16,18.2-18.2,18.2s-18.2-8.16-18.2-18.2,8.16-18.2,18.2-18.2,18.2,8.16,18.2,18.2Z"/>
    </g>
  </g>
</svg>